<?xml version="1.0" encoding="utf-8"?>
<!-- Generator: Adobe Illustrator 24.0.1, SVG Export Plug-In . SVG Version: 6.00 Build 0)  -->
<svg version="1.1" id="Layer_1" xmlns="http://www.w3.org/2000/svg" xmlns:xlink="http://www.w3.org/1999/xlink" x="0px" y="0px"
	 viewBox="0 0 355.4 135.2" style="enable-background:new 0 0 355.4 135.2;" xml:space="preserve">
<style type="text/css">
	.st0{fill:#3B82F6;}
	.st1{fill:#FFFFFF;}
	.st2{fill:#E9000D;}
	.st3{fill:none;stroke:#FFFFFF;stroke-width:7.8652;stroke-miterlimit:10;}
</style>
<g id="Layer_1_1_">
	<path class="st0" d="M119.2,66.5c-2.1,13.5-15.9,24.1-11,36c2.7,6.5,8.4,7.5,8,11c-0.9,7.2-26.2,14.1-48.2,9.6
		c-19.7-4.1-55.9-21.4-56-56c-0.1-29,25-57.3,56-56C100.7,12.5,122.4,46.3,119.2,66.5z"/>
</g>
<g id="Layer_5">
	<g>
		<path class="st0" d="M156.9,91.4h-16.1c-0.8,0-1.5-0.7-1.5-1.5v-4.4c0-1,0.5-1.5,1.5-1.5h14.8c3.9,0,5.9-1.3,5.9-3.9V79
			c0-2.3-1.5-4.2-4.2-5.4l-9.8-4.6c-3.1-1.5-5.2-2.9-6.7-4.7c-1.5-1.8-2.1-3.9-2.1-6.7c0-7.6,4.2-11.4,12.9-11.4h15
			c1,0,1.5,0.5,1.5,1.5v4.4c0,1-0.5,1.5-1.5,1.5h-13.2c-1.8,0-3.3,0.3-4.2,1c-1,0.7-1.5,1.5-1.5,2.4v1c0,2,1.5,3.6,4.6,4.9l9.9,4.9
			c3.1,1.3,5.2,2.9,6.5,4.9c1.1,1.8,1.8,4.2,1.8,7.2C170.4,87.5,166,91.4,156.9,91.4z M211.6,91.4h-19.7c-4.4,0-7.8-1.1-10.3-3.6
			c-2.4-2.4-3.6-5.9-3.6-10.1V59.8c0-4.4,1.1-7.8,3.6-10.1c2.4-2.4,5.9-3.6,10.3-3.6h7.3c4.4,0,8,1.1,10.4,3.6s3.7,5.7,3.7,10.3
			v11.4c0,0.8-0.7,1.6-1.6,1.6h-24.2c-0.7,0-1,0.3-1,0.8V78c0,3.3,2.6,6,6,6h19.4c0.8,0,1.5,0.7,1.5,1.5v4.6
			C213.2,90.9,212.5,91.4,211.6,91.4z M188.1,66.5h15.8c0.5,0,0.8-0.3,0.8-0.8V60c0-2.3-0.5-3.9-1.5-4.9c-1-1-2.6-1.6-4.9-1.6h-4.9
			c-2.3,0-3.9,0.5-4.9,1.6c-1,1-1.5,2.6-1.5,4.9v5.7C187.3,66,187.6,66.5,188.1,66.5z M254.9,91.4H236c-4.4,0-7.8-1.1-10.3-3.6
			c-2.4-2.4-3.6-5.9-3.6-10.1V59.8c0-4.4,1.1-7.8,3.6-10.1c2.4-2.4,5.9-3.6,10.3-3.6h7.3c4.4,0,8,1.1,10.4,3.6s3.7,5.7,3.7,10.3
			v11.4c0,0.8-0.7,1.6-1.6,1.6h-24.2c-0.7,0-1,0.3-1,0.8V78c0,3.3,2.6,6,6,6H255c0.8,0,1.5,0.7,1.5,1.5v4.6
			C256.5,90.9,256,91.4,254.9,91.4z M231.6,66.5h15.8c0.5,0,0.8-0.3,0.8-0.8V60c0-2.3-0.5-3.9-1.5-4.9c-1-1-2.6-1.6-4.9-1.6H237
			c-2.3,0-3.9,0.5-4.9,1.6c-1,1-1.5,2.6-1.5,4.9v5.7C230.6,66,231.1,66.5,231.6,66.5z M292.3,46.1h6.3c0.5,0,0.8,0.2,1.1,0.5
			c0.2,0.3,0.2,0.7-0.2,1.3l-12.5,19.9v0.3l13.5,21.5c0.3,0.5,0.3,0.8,0.2,1.3c-0.2,0.3-0.7,0.5-1.3,0.5h-5.7
			c-1.3,0-2.4-0.5-3.1-1.5L278,69.4c-0.5-0.8-0.5-1.6,0-2.4l11.6-19.4C290.2,46.6,291,46.1,292.3,46.1z M273.4,91.4h-5.2
			c-0.8,0-1.5-0.7-1.5-1.5V31c0-0.8,0.7-1.5,1.5-1.5h5.4c0.8,0,1.5,0.7,1.5,1.5v58.8C275,90.7,274.4,91.4,273.4,91.4z M324,91.4
			h-4.6c-4.2,0-7.5-1.1-9.8-3.4c-2.3-2.4-3.4-5.7-3.4-10.1V59.6c0-4.4,1.1-7.6,3.4-10.1c2.3-2.3,5.5-3.4,9.8-3.4h4.6
			c4.6,0,7.5,1.5,8.8,4.6h0.3V31c0-0.8,0.7-1.5,1.5-1.5h5.4c0.8,0,1.5,0.7,1.5,1.5v58.8c0,0.8-0.7,1.5-1.5,1.5h-5.4
			c-0.8,0-1.5-0.7-1.5-1.5v-3.1h-0.3C331.5,89.7,328.4,91.4,324,91.4z M333.1,76.4V61.1c0-5-2.4-7.6-7.3-7.6h-4.7
			c-4.2,0-6.3,2.3-6.3,6.7v17.3c0,4.4,2.1,6.7,6.3,6.7h4.7C330.7,83.9,333.1,81.4,333.1,76.4z"/>
	</g>
</g>
<g id="Layer_2_1_">
	<path class="st1" d="M81.4,89.2l-9-8.9c-1.3-1.3-1.1-3.7,0.5-5.3l0,0c1.6-1.6,4-1.8,5.4-0.5l9,8.9c1.3,1.3,1.1,3.7-0.5,5.3l0,0
		C85.2,90.3,82.8,90.5,81.4,89.2z"/>
</g>
<g id="Layer_3">
	<polygon class="st2" points="0,0 0,0 0,0 	"/>
</g>
<g id="Layer_4">
	<circle class="st3" cx="63.8" cy="65.8" r="15.7"/>
</g>
</svg>
